<!-- SPDX-License-Identifier: GPL-3.0-or-later WITH AdditionRef-RazorFX-plugin-exception -->
<!-- Copyright (C) 2026 Trevor Olsen -->
<svg xmlns="http://www.w3.org/2000/svg" width="256" height="256" viewBox="0 0 256 256">
  <defs>
    <linearGradient id="bg" x1="0" y1="0" x2="0" y2="1">
      <stop offset="0" stop-color="#1e1e24"/><stop offset="1" stop-color="#0b0b0d"/>
    </linearGradient>
    <linearGradient id="fx" x1="0" y1="1" x2="1" y2="0">
      <stop offset="0" stop-color="#ff5a00"/><stop offset="0.45" stop-color="#44d62c"/><stop offset="1" stop-color="#00b3ff"/>
    </linearGradient>
    <linearGradient id="cap" x1="0" y1="0" x2="0" y2="1">
      <stop offset="0" stop-color="#3a3a44"/><stop offset="1" stop-color="#202026"/>
    </linearGradient>
  </defs>
  <rect x="8" y="8" width="240" height="240" rx="52" fill="url(#bg)" stroke="#2b2b33" stroke-width="4"/>
  <g fill="none" stroke="url(#fx)" stroke-linecap="round">
    <circle cx="128" cy="140" r="94" stroke-width="10" opacity="0.35"/>
    <circle cx="128" cy="140" r="70" stroke-width="12" opacity="0.65"/>
  </g>
  <rect x="84" y="96" width="88" height="88" rx="18" fill="url(#cap)" stroke="url(#fx)" stroke-width="8"/>
  <path d="M128 112 C142 128 150 140 144 156 C140 166 116 166 112 156 C108 146 116 140 120 132 C122 140 126 142 130 140 C134 134 130 122 128 112 Z" fill="url(#fx)"/>
</svg>
